<?xml version="1.0" standalone="no"?>
<!DOCTYPE svg PUBLIC "-//W3C//DTD SVG 20010904//EN"
 "http://www.w3.org/TR/2001/REC-SVG-20010904/DTD/svg10.dtd">
<svg version="1.0" xmlns="http://www.w3.org/2000/svg"
 width="478.000000pt" height="478.000000pt" viewBox="0 0 478.000000 478.000000"
 preserveAspectRatio="xMidYMid meet">
<metadata>
Created by potrace 1.14, written by Peter Selinger 2001-2017
</metadata>
<g transform="translate(0.000000,478.000000) scale(0.100000,-0.100000)"
fill="#000000" stroke="none">
<path d="M745 4563 c-212 -7 -432 -41 -610 -95 -55 -16 -108 -32 -117 -35 -17
-5 -18 -71 -18 -1203 l0 -1197 37 -15 c21 -9 119 -48 218 -88 375 -150 479
-221 535 -369 24 -62 25 -110 4 -180 -28 -96 -119 -164 -255 -192 -111 -23
-335 -10 -511 27 l-28 6 0 -490 0 -490 27 -7 c53 -13 386 -21 575 -13 272 11
508 53 734 132 54 19 100 33 103 31 3 -4 -6 -33 -24 -78 -7 -16 28 -17 681
-15 l688 3 62 240 c34 132 79 304 100 383 l37 142 622 0 c489 0 624 -3 627
-12 3 -7 45 -181 94 -385 l88 -373 183 0 183 0 0 1563 0 1562 -173 535 -173
535 -789 0 -789 0 -393 -1140 c-216 -627 -395 -1146 -398 -1153 -3 -7 -31 22
-68 70 -164 214 -476 420 -922 608 -379 160 -520 252 -558 364 -46 135 14 260
156 327 87 40 152 51 309 51 314 0 600 -73 920 -233 54 -27 100 -49 103 -49 3
0 4 242 3 538 l-3 537 -125 33 c-252 65 -529 107 -768 117 -262 10 -287 11
-367 8z m2884 -1072 c23 -166 71 -374 215 -939 80 -314 146 -575 146 -579 0
-5 -174 -9 -395 -9 -217 0 -395 3 -395 6 0 3 12 46 25 95 14 50 90 344 170
655 136 531 195 784 195 835 0 12 6 22 14 22 9 0 17 -26 25 -86z"/>
</g>
</svg>
